<svg id="Calque_1" data-name="Calque 1" xmlns="http://www.w3.org/2000/svg" viewBox="0 0 205 205"><defs><style>.cls-1,.cls-4{fill:none;}.cls-1{isolation:isolate;}.cls-2{fill:#0172bc;}.cls-3{fill:#fff;}.cls-5{fill:#f7fafc;}.cls-6{fill:#157dc1;}</style></defs><title>auto_bleu_logo</title><path class="cls-1" transform="translate(-70 -44.5)"/><circle class="cls-2" cx="102.5" cy="102.5" r="102.5"/><path class="cls-3" d="M223,168.43V155.95c0.25-4.82-1.54-8.42-5.69-10.8-1.61-.92-2.14-2.25-2.52-4-1.14-5.35-2.53-10.64-3.84-15.95-2.14-8.63-8.36-13.58-17.22-13.69-4.16,0-20.15,0-24,0-1.8,0-2.75.7-2.4,3l26.92,0c5.37,0.08,10,2,11.89,7.37,2.14,6.2,3.59,12.64,5.52,19.62H157.22v17.32h31.46a1.13,1.13,0,0,1,1.26,1v2.37H157.24v2.34h32.72v3.06l-32.72,0V183l35.63,0c0,2.91.07,5.57,0,8.22a5.45,5.45,0,0,0,3.11,5.26,14.77,14.77,0,0,0,14.32.47c2.66-1.26,4.12-3.16,4-6.26s0-6,0-8.86a19.14,19.14,0,0,1,1.9-1.24C221.21,178.11,223.27,174,223,168.43Zm-27.89-1.1v-8.5h19.81v8.5H195.13Z" transform="translate(-70 -44.5)"/><path class="cls-4" d="M142.94,191.32a3.08,3.08,0,0,1,.44,0Z" transform="translate(-70 -44.5)"/><path class="cls-5" d="M153.15,91.62V107.5c-3,1.71-5.56,3.28-8.23,4.59a6.51,6.51,0,0,1-4.08-.1c-3.1-1.48-5.23-2.89-8.19-4.56v-16C126.08,95.71,122.52,101,122,106.6c-0.8,9.33,3.63,15.88,11.19,20.45,0,2,0,43.65,0,62.8a22.63,22.63,0,0,0,.7,5.89c1.17,4.24,4.79,6.74,9.34,6.77,4.18,0,8.09-2.43,9.29-6.23a18.39,18.39,0,0,0,.52-5.42c0-20,0-62.89,0-64C167.46,116.24,167.5,99.85,153.15,91.62Z" transform="translate(-70 -44.5)"/><path class="cls-6" d="M139.79,194.39a3.08,3.08,0,1,0,3.78-3l-0.19,0a3.08,3.08,0,0,0-.44,0H142.8A3.07,3.07,0,0,0,139.79,194.39Z" transform="translate(-70 -44.5)"/><path class="cls-6" d="M143.38,191.37l0.19,0Z" transform="translate(-70 -44.5)"/></svg>