<svg id="Calque_1" data-name="Calque 1" xmlns="http://www.w3.org/2000/svg" viewBox="0 0 203.45 203.45"><defs><style>.cls-1{fill:none;isolation:isolate;}.cls-2{fill:#f6941e;}.cls-3{fill:#fefcfa;}.cls-4{fill:#fef8f1;}</style></defs><title>ilot_gourmand_logo</title><path class="cls-1" transform="translate(-38.27 -30.77)"/><circle class="cls-2" cx="101.73" cy="101.73" r="101.73"/><path class="cls-3" d="M165,180.35h-11.9L152.7,83.06h12.59c9.65,13.51,14.37,28.34,10.66,45.64H165.1Z" transform="translate(-38.27 -30.77)"/><path class="cls-4" d="M120.65,122.2c-1.61-.71-2.5-1.16-3.43-1.51-4.55-1.73-7-5-7-9.87,0-8.62,0-17.25,0-26.08h4.5L117,109.37h5.34V84.17h5.14v25.23h6.12l1.6-24.6H140c0,8.85.15,17.48-.07,26.09-0.09,3.68-2.23,6.57-5.26,8.67-1.36.94-2.81,1.75-4.61,2.86,0,1.62,0,52.72,0,52.72,0,2.55-.33,4.65-3.16,5.46-3.56,1-6.21-1.17-6.22-5.33C120.63,159.43,120.65,124.15,120.65,122.2Z" transform="translate(-38.27 -30.77)"/></svg>