<svg id="Calque_1" data-name="Calque 1" xmlns="http://www.w3.org/2000/svg" viewBox="0 0 204.32 204.32"><defs><style>.cls-1,.cls-5{fill:none;}.cls-1{isolation:isolate;}.cls-2{fill:#93c956;}.cls-3{fill:#fbfdf9;}.cls-4{fill:#fbfcf9;}.cls-6{fill:#93c855;}.cls-7{fill:#f9fcf6;}</style></defs><title>menuiserie_logo</title><path class="cls-1" transform="translate(-39.34 -29.6)"/><circle class="cls-2" cx="102.16" cy="102.16" r="102.16"/><path class="cls-3" d="M196.36,184.83H185.43l0-5.69c-0.15-3.58-1.53-5.09-5.09-5.53l-56.48-.06c-3.53.56-4.53,1.64-4.74,5.32-0.09,1.66,0,6,0,6H108.22l0-75.18c0-4.26-.54-8.1-3.25-11.73-3-4.07-.58-8.3,4.59-8.58l85,0c3.94,0.49,6.39,4.5,4.16,7.65-2.35,3.33-2.39,6.76-2.39,10.42C196.38,131.28,196.36,184.83,196.36,184.83Zm-40.89-23.54c0,4.57,1.41,6,5.93,6h22.45c4.54,0,5.7-1.13,5.71-5.57q0.08-26.94,0-53.88c0-4.6-1-5.61-5.57-5.65H161.55c-5.15,0-6.06,1-6.08,6.2v52.88Zm-41-52.64q0,26.19,0,52.39c0,4.84,1.43,6.24,6.22,6.28,7.15,0.06,14.3,0,21.45,0,5.5,0,6.49-.94,6.5-6.32q0.06-26.44,0-52.89c0-5.06-.81-5.87-5.78-5.91H120C115.34,102.2,114.5,102.45,114.5,108.64Z" transform="translate(-39.34 -29.6)"/><path class="cls-4" d="M91.65,90.84c0.74,1.33,2.43,4.16,3.47,11.23,0.24,1.61.62,3.7-.14,4.88-1.82,2.81-1.35,7.8-1.35,7.8v35c7.14,0,6.6,12.72,6.6,12.72l0,21.45H83.45V162.5s-0.92-12.81,5.3-12.81c0,0,.09-25,0.07-34.87,0-2.63.36-5.32-1-7.8a4.89,4.89,0,0,1-.24-2C87.31,101.53,89.31,94.08,91.65,90.84Z" transform="translate(-39.34 -29.6)"/><path class="cls-5" d="M161.5,130.36a5,5,0,0,0-5.15,5.37,5.11,5.11,0,1,0,10.2-.4A5,5,0,0,0,161.5,130.36Z" transform="translate(-39.34 -29.6)"/><path class="cls-6" d="M189.57,107.81c0-4.6-1-5.61-5.57-5.65H161.55c-5.15,0-6.06,1-6.08,6.2,0,8.81,0,17.63,0,26.44s0,17.63,0,26.44c0,4.57,1.41,6,5.93,6h22.45c4.54,0,5.7-1.13,5.71-5.57V107.81Zm-28.17,33a5.24,5.24,0,0,1-5.06-5.05,5,5,0,0,1,5.15-5.37,5,5,0,0,1,5.05,5A5.21,5.21,0,0,1,161.4,140.78Z" transform="translate(-39.34 -29.6)"/><path class="cls-5" d="M143.41,130.54l0.27,0.08Z" transform="translate(-39.34 -29.6)"/><path class="cls-5" d="M146.17,132.36l0,0Z" transform="translate(-39.34 -29.6)"/><path class="cls-5" d="M141.77,140.76l-0.22,0Z" transform="translate(-39.34 -29.6)"/><path class="cls-5" d="M142.16,140.79a4.74,4.74,0,0,0,1.93-.4,5.21,5.21,0,0,1-2,.4h0Z" transform="translate(-39.34 -29.6)"/><path class="cls-5" d="M143,130.44a4.8,4.8,0,0,0-1-.1,4.69,4.69,0,0,0-.65.07,5.16,5.16,0,0,1,.69-0.07A5.22,5.22,0,0,1,143,130.44Z" transform="translate(-39.34 -29.6)"/><path class="cls-5" d="M145.75,139.27a5.25,5.25,0,0,1-.63.52A5.79,5.79,0,0,0,145.75,139.27Z" transform="translate(-39.34 -29.6)"/><path class="cls-5" d="M144.86,140a5.2,5.2,0,0,1-.71.39A5.46,5.46,0,0,0,144.86,140Z" transform="translate(-39.34 -29.6)"/><path class="cls-5" d="M146.45,132.74a5.2,5.2,0,0,1-.67,6.51,5.17,5.17,0,0,0,1.62-3.49A5,5,0,0,0,146.45,132.74Z" transform="translate(-39.34 -29.6)"/><path class="cls-5" d="M137.54,133a5.16,5.16,0,0,0-.8,2.38,4.62,4.62,0,0,0,.9,2.93A5.09,5.09,0,0,1,137.54,133Z" transform="translate(-39.34 -29.6)"/><path class="cls-2" d="M142.94,102.22H120c-1.14,0-5.48,4.21-5.48,6.43l0,52.39c0,4.84,1.43,6.24,6.22,6.28h21.45c5.5,0,6.49-.94,6.5-6.32V108.13C148.71,103.06,147.91,102.26,142.94,102.22Z" transform="translate(-39.34 -29.6)"/><path class="cls-7" d="M146.45,132.74c-0.09-.12-0.17-0.24-0.27-0.36l0,0a5.71,5.71,0,0,0-2.48-1.74c-0.09,0-.54-0.16-0.67-0.19a10.43,10.43,0,0,0-1.64,0,5.56,5.56,0,0,0-3.83,2.59,5.09,5.09,0,0,0,.1,5.31,5.87,5.87,0,0,0,3.91,2.43l0.22,0,0.36,0a5.21,5.21,0,0,0,2-.4l0.06,0a5.2,5.2,0,0,0,.71-0.39l0.27-.18a5.25,5.25,0,0,0,.63-0.52l0,0A5.2,5.2,0,0,0,146.45,132.74Z" transform="translate(-39.34 -29.6)"/><path class="cls-7" d="M145.12,139.79l-0.27.18Z" transform="translate(-39.34 -29.6)"/><path class="cls-7" d="M145.78,139.24l0,0Z" transform="translate(-39.34 -29.6)"/><path class="cls-7" d="M141.38,130.41a5.19,5.19,0,0,0-3.83,2.59A5.56,5.56,0,0,1,141.38,130.41Z" transform="translate(-39.34 -29.6)"/><path class="cls-7" d="M144.15,140.36l-0.06,0Z" transform="translate(-39.34 -29.6)"/><path class="cls-7" d="M137.64,138.31a5.2,5.2,0,0,0,3.91,2.43A5.87,5.87,0,0,1,137.64,138.31Z" transform="translate(-39.34 -29.6)"/><path class="cls-7" d="M146.18,132.38c0.1,0.12.18,0.24,0.27,0.36C146.37,132.61,146.28,132.5,146.18,132.38Z" transform="translate(-39.34 -29.6)"/><path class="cls-7" d="M146.17,132.36a5.2,5.2,0,0,0-2.48-1.74A5.71,5.71,0,0,1,146.17,132.36Z" transform="translate(-39.34 -29.6)"/><path class="cls-7" d="M142.07,140.79h0.06l-0.36,0C141.87,140.77,142,140.79,142.07,140.79Z" transform="translate(-39.34 -29.6)"/><path class="cls-7" d="M143,130.44l0.4,0.1Z" transform="translate(-39.34 -29.6)"/><path class="cls-7" d="M166.62,132.81c-0.09-.12-0.17-0.24-0.27-0.36l0,0a5.71,5.71,0,0,0-2.48-1.74c-0.09,0-.54-0.16-0.67-0.19a10.43,10.43,0,0,0-1.64,0,5.56,5.56,0,0,0-3.83,2.59,5.09,5.09,0,0,0,.1,5.31,5.87,5.87,0,0,0,3.91,2.43l0.22,0,0.36,0a5.21,5.21,0,0,0,2-.4l0.06,0A5.2,5.2,0,0,0,165,140l0.27-.18a5.25,5.25,0,0,0,.63-0.52l0,0A5.2,5.2,0,0,0,166.62,132.81Z" transform="translate(-39.34 -29.6)"/></svg>