<svg id="Calque_1" data-name="Calque 1" xmlns="http://www.w3.org/2000/svg" viewBox="0 0 78.82 58.6"><defs><style>.cls-1{fill:#fff;}</style></defs><title>telephone_blanc</title><path class="cls-1" d="M85.4,31.4C79.3,25.1,65.2,20.7,50,20.7S20.6,25.1,14.5,31.5a11.58,11.58,0,1,0,19.2,8.7,11.21,11.21,0,0,0-2.2-6.7,81.66,81.66,0,0,1,36.8,0,11.21,11.21,0,0,0-2.2,6.7,11.6,11.6,0,0,0,23.2,0A10.87,10.87,0,0,0,85.4,31.4Z" transform="translate(-10.5 -20.7)"/><path class="cls-1" d="M78.2,56.1h0A15.49,15.49,0,0,1,64,46.6L61.7,41a2.22,2.22,0,0,0-2.2-2.2h-19A2.22,2.22,0,0,0,38.3,41L36,46.6a15.38,15.38,0,0,1-14.2,9.5h0A2.9,2.9,0,0,0,18.9,59V76.4a2.9,2.9,0,0,0,2.9,2.9H78.2a2.9,2.9,0,0,0,2.9-2.9V59.1A2.93,2.93,0,0,0,78.2,56.1ZM51.9,69.3a11.06,11.06,0,1,1,9-9A11.11,11.11,0,0,1,51.9,69.3Z" transform="translate(-10.5 -20.7)"/></svg>